#N canvas 81 90 1091 702 10;
#X obj 1817 156 dac~;
#X obj -506 94 *~;
#X obj -225 -48 line~;
#X obj -633 -151 mtof;
#X obj 245 -755 loadbang;
#X obj 1860 69 *~;
#X msg 1947 -12 \$1 50;
#X obj 1947 19 line~;
#X obj -633 -115 phasor~;
#X obj -633 -92 *~ 2;
#X obj -633 -67 -~ 1;
#X obj -533 -47 mtof;
#X obj -604 -2 lop~;
#X msg 277 -699 60000;
#X obj 246 -614 metro;
#X obj 277 -664 /;
#X msg 329 -698 120;
#X obj 275 -642 i;
#X obj -633 -198 r osc1modulo1X;
#X obj -225 -198 r osc1Volume;
#X obj -444 141 *~;
#X obj -437 192 dac~;
#X text 365 -697 BPM;
#X text 130 -781 ----------------- Metronome ---------------;
#X text -603 -221 Note;
#X text -518 -221 Filtre;
#X text -308 -222 Decay;
#X text -206 -223 Volume;
#X text -446 -285 Oscillateur 1;
#X obj 332 -544 s tempo;
#X obj 332 -642 / 10;
#X obj -533 -198 r osc1Cutoff;
#X obj -333 -198 r osc1modulo2X;
#X obj -445 -198 r osc1modulo2Y;
#X text -424 -221 Attack;
#X obj 101 -616 +;
#X floatatom 130 -588 5 0 0 0 - - -, f 5;
#X obj 70 -326 s banger1;
#X obj 205 -325 s banger2;
#X obj 247 -544 s click;
#X obj 59 93 *~;
#X obj 341 -49 line~;
#X obj -68 -152 mtof;
#X obj -68 -116 phasor~;
#X obj -68 -93 *~ 2;
#X obj -68 -68 -~ 1;
#X obj 32 -48 mtof;
#X obj -39 -3 lop~;
#X obj 121 140 *~;
#X obj 128 191 dac~;
#X text -38 -222 Note;
#X text 47 -222 Filtre;
#X text 257 -223 Decay;
#X text 359 -224 Volume;
#X text 141 -222 Attack;
#X text 119 -286 Oscillateur 2;
#X obj -68 -199 r osc2modulo1X;
#X obj 32 -199 r osc2Cutoff;
#X obj 120 -199 r osc2modulo2Y;
#X obj 232 -199 r osc2modulo2X;
#X obj 340 -199 r osc2Volume;
#X obj 101 -640 1;
#X obj 172 -636 metro;
#X obj 246 -734 t b b b b;
#X obj 103 -671 bng 15 250 50 0 empty empty empty 17 7 0 10 -262144
-1 -1;
#X floatatom 190 -605 5 0 0 0 - - -, f 5;
#X obj 222 -634 / 2;
#N canvas 584 39 485 438 enveloppe 0;
#X obj 14 8 inlet;
#X obj 64 8 inlet;
#X obj 28 232 line~;
#X obj 222 58 r tempo;
#X obj 174 190 pack 0 \$2;
#X obj 27 130 t b b;
#X obj 204 98 *;
#X obj 3 110 bng 15 250 50 0 empty empty empty 17 7 0 10 -262144 -1
-1;
#X obj 29 192 pack 0.5 \$2;
#X obj 107 154 delay;
#X obj 27 91 r banger1;
#X text 24 -12 Y;
#X text 77 -12 X;
#X obj 35 295 outlet~;
#X connect 0 0 8 1;
#X connect 0 0 9 1;
#X connect 1 0 6 0;
#X connect 2 0 13 0;
#X connect 3 0 6 1;
#X connect 4 0 2 0;
#X connect 5 0 8 0;
#X connect 5 1 9 0;
#X connect 6 0 4 1;
#X connect 8 0 2 0;
#X connect 9 0 4 0;
#X connect 10 0 5 0;
#X connect 10 0 7 0;
#X restore -448 -118 pd enveloppe;
#N canvas 584 39 485 438 enveloppe 0;
#X obj 14 8 inlet;
#X obj 64 8 inlet;
#X obj 28 232 line~;
#X obj 222 58 r tempo;
#X obj 174 190 pack 0 \$2;
#X obj 27 130 t b b;
#X obj 204 98 *;
#X obj 3 110 bng 15 250 50 0 empty empty empty 17 7 0 10 -262144 -1
-1;
#X obj 29 192 pack 0.5 \$2;
#X obj 107 154 delay;
#X text 24 -12 Y;
#X text 77 -12 X;
#X obj 35 295 outlet~;
#X obj 27 91 r banger2;
#X connect 0 0 8 1;
#X connect 0 0 9 1;
#X connect 1 0 6 0;
#X connect 2 0 12 0;
#X connect 3 0 6 1;
#X connect 4 0 2 0;
#X connect 5 0 8 0;
#X connect 5 1 9 0;
#X connect 6 0 4 1;
#X connect 8 0 2 0;
#X connect 9 0 4 0;
#X connect 13 0 5 0;
#X connect 13 0 7 0;
#X restore 179 -119 pd enveloppe;
#X obj 646 94 *~;
#X obj 928 -48 line~;
#X obj 519 -151 mtof;
#X obj 519 -115 phasor~;
#X obj 519 -92 *~ 2;
#X obj 519 -67 -~ 1;
#X obj 619 -47 mtof;
#X obj 548 -2 lop~;
#X obj 708 141 *~;
#X obj 715 192 dac~;
#X text 549 -221 Note;
#X text 634 -221 Filtre;
#X text 844 -222 Decay;
#X text 946 -223 Volume;
#X text 728 -221 Attack;
#N canvas 584 39 485 438 enveloppe 0;
#X obj 14 8 inlet;
#X obj 64 8 inlet;
#X obj 28 232 line~;
#X obj 222 58 r tempo;
#X obj 174 190 pack 0 \$2;
#X obj 27 130 t b b;
#X obj 204 98 *;
#X obj 3 110 bng 15 250 50 0 empty empty empty 17 7 0 10 -262144 -1
-1;
#X obj 29 192 pack 0.5 \$2;
#X obj 107 154 delay;
#X text 24 -12 Y;
#X text 77 -12 X;
#X obj 35 295 outlet~;
#X obj 27 91 r banger3;
#X connect 0 0 8 1;
#X connect 0 0 9 1;
#X connect 1 0 6 0;
#X connect 2 0 12 0;
#X connect 3 0 6 1;
#X connect 4 0 2 0;
#X connect 5 0 8 0;
#X connect 5 1 9 0;
#X connect 6 0 4 1;
#X connect 8 0 2 0;
#X connect 9 0 4 0;
#X connect 13 0 5 0;
#X connect 13 0 7 0;
#X restore 766 -118 pd enveloppe;
#X obj 519 -198 r osc3modulo1X;
#X obj 619 -198 r osc3Cutoff;
#X obj 707 -198 r osc3modulo2Y;
#X obj 819 -198 r osc3modulo2X;
#X obj 927 -198 r osc3Volume;
#X text 706 -285 Oscillateur 3;
#X obj 1228 96 *~;
#X obj 1510 -46 line~;
#X obj 1101 -149 mtof;
#X obj 1101 -113 phasor~;
#X obj 1101 -90 *~ 2;
#X obj 1101 -65 -~ 1;
#X obj 1201 -45 mtof;
#X obj 1130 0 lop~;
#X obj 1290 143 *~;
#X obj 1297 194 dac~;
#X text 1131 -219 Note;
#X text 1216 -219 Filtre;
#X text 1426 -220 Decay;
#X text 1528 -221 Volume;
#X text 1310 -219 Attack;
#N canvas 584 39 485 438 enveloppe 0;
#X obj 14 8 inlet;
#X obj 64 8 inlet;
#X obj 28 232 line~;
#X obj 222 58 r tempo;
#X obj 174 190 pack 0 \$2;
#X obj 27 130 t b b;
#X obj 204 98 *;
#X obj 3 110 bng 15 250 50 0 empty empty empty 17 7 0 10 -262144 -1
-1;
#X obj 29 192 pack 0.5 \$2;
#X obj 107 154 delay;
#X text 24 -12 Y;
#X text 77 -12 X;
#X obj 35 295 outlet~;
#X obj 27 91 r banger4;
#X connect 0 0 8 1;
#X connect 0 0 9 1;
#X connect 1 0 6 0;
#X connect 2 0 12 0;
#X connect 3 0 6 1;
#X connect 4 0 2 0;
#X connect 5 0 8 0;
#X connect 5 1 9 0;
#X connect 6 0 4 1;
#X connect 8 0 2 0;
#X connect 9 0 4 0;
#X connect 13 0 5 0;
#X connect 13 0 7 0;
#X restore 1348 -116 pd enveloppe;
#X text 1288 -283 Oscillateur 4;
#X obj 1101 -196 r osc4modulo1X;
#X obj 1201 -196 r osc4Cutoff;
#X obj 1289 -196 r osc4modulo2Y;
#X obj 1400 -196 r osc4modulo2X;
#X obj 1509 -196 r osc4Volume;
#X obj 104 -572 % 4;
#X obj 104 -543 sel 0 1 2 3;
#X obj 339 -324 s banger3;
#X obj 467 -324 s banger4;
#X obj 80 -440 r osc1Delay;
#X obj 221 -436 r osc2Delay;
#X obj 353 -430 r osc3Delay;
#X obj 478 -433 r osc4Delay;
#X obj 69 -361 delay;
#X obj 80 -388 *;
#X obj 205 -358 delay;
#X obj 221 -382 *;
#X obj 339 -352 delay;
#X obj 353 -378 *;
#X obj 467 -351 delay;
#X obj 478 -381 *;
#X obj 417 -645 / 100;
#X obj 421 -534 s tempoRatio;
#X obj 95 -416 r tempoRatio;
#X obj 236 -410 r tempoRatio;
#X obj 368 -406 r tempoRatio;
#X obj 493 -409 r tempoRatio;
#X obj 1654 -135 line;
#X obj 1654 -113 osc~;
#X msg 1654 -193 127;
#X obj 1779 -193 noise~;
#X obj 1829 -149 line~;
#X obj 1779 -125 *~;
#X obj 1694 -193 delay 20;
#X obj 1654 -91 hip~ 90;
#X obj 1956 -132 line~;
#X obj 1773 -265 t b b b b b b;
#X obj 1795 -52 *~;
#X msg 1694 -167 0 150;
#X msg 2001 -165 0 150;
#X obj 1871 -192 delay 20;
#X msg 1829 -193 0.02;
#X obj 2001 -189 delay 20;
#X obj 1779 -103 hip~ 4000;
#X msg 1871 -170 0 15;
#X msg -225 -79 \$1 50;
#X msg 341 -80 \$1 50;
#X msg 928 -79 \$1 50;
#X msg 1510 -77 \$1 50;
#X msg 1956 -191 0.5;
#X obj -225 -125 / 2;
#X obj 341 -134 / 2;
#X obj 929 -135 / 2;
#X obj 1510 -133 / 2;
#X text 1792 -352 Kick 1;
#X obj 2328 165 dac~;
#X obj 2371 78 *~;
#X msg 2458 -3 \$1 50;
#X obj 2458 28 line~;
#X obj 2165 -126 line;
#X obj 2165 -104 osc~;
#X msg 2165 -184 127;
#X obj 2290 -184 noise~;
#X obj 2340 -140 line~;
#X obj 2290 -116 *~;
#X obj 2205 -184 delay 20;
#X obj 2165 -82 hip~ 90;
#X obj 2467 -123 line~;
#X obj 2284 -256 t b b b b b b;
#X obj 2306 -43 *~;
#X msg 2205 -158 0 150;
#X msg 2512 -156 0 150;
#X obj 2382 -183 delay 20;
#X msg 2340 -184 0.02;
#X obj 2512 -180 delay 20;
#X obj 2290 -94 hip~ 4000;
#X msg 2382 -161 0 15;
#X msg 2467 -182 0.5;
#X obj 1951 -66 r kick1Volume;
#X obj 2462 -57 r kick2Volume;
#X obj 1773 -292 r bangerKick1;
#X obj 2284 -283 r bangerKick2;
#X text 2301 -336 Kick 2;
#X obj 69 -503 s 1/4;
#X obj 69 -464 r 1/4;
#X obj 117 -502 s 2/4;
#X obj 205 -463 r 2/4;
#X obj 161 -501 s 3/4;
#X obj 207 -500 s 4/4;
#X obj 339 -460 r 3/4;
#X obj 467 -463 r 4/4;
#X obj 613 -361 delay;
#X obj 624 -388 *;
#X obj 749 -358 delay;
#X obj 765 -382 *;
#X obj 883 -352 delay;
#X obj 897 -378 *;
#X obj 1011 -351 delay;
#X obj 1022 -381 *;
#X obj 639 -416 r tempoRatio;
#X obj 780 -410 r tempoRatio;
#X obj 912 -406 r tempoRatio;
#X obj 1037 -409 r tempoRatio;
#X obj 613 -464 r 1/4;
#X obj 749 -463 r 2/4;
#X obj 883 -460 r 3/4;
#X obj 1011 -463 r 4/4;
#X obj 624 -440 r kick1Delay;
#X obj 765 -436 r kick2Delay;
#X obj 897 -430 r kick3Delay;
#X obj 1022 -433 r kick4Delay;
#X obj 614 -326 s bangerKick1;
#X obj 749 -325 s bangerKick2;
#X obj 883 -324 s bangerKick3;
#X obj 1011 -324 s bangerKick4;
#X obj 2806 168 dac~;
#X obj 2849 81 *~;
#X msg 2936 0 \$1 50;
#X obj 2936 31 line~;
#X obj 2643 -123 line;
#X obj 2643 -101 osc~;
#X msg 2643 -181 127;
#X obj 2768 -181 noise~;
#X obj 2818 -137 line~;
#X obj 2768 -113 *~;
#X obj 2683 -181 delay 20;
#X obj 2643 -79 hip~ 90;
#X obj 2945 -120 line~;
#X obj 2762 -253 t b b b b b b;
#X obj 2784 -40 *~;
#X msg 2683 -155 0 150;
#X msg 2990 -153 0 150;
#X obj 2860 -180 delay 20;
#X msg 2818 -181 0.02;
#X obj 2990 -177 delay 20;
#X obj 2768 -91 hip~ 4000;
#X msg 2860 -158 0 15;
#X msg 2945 -179 0.5;
#X text 2779 -333 Kick 3;
#X obj 2762 -280 r bangerKick3;
#X obj 2940 -54 r kick3Volume;
#X obj 3309 169 dac~;
#X obj 3352 82 *~;
#X msg 3439 1 \$1 50;
#X obj 3439 32 line~;
#X obj 3146 -122 line;
#X obj 3146 -100 osc~;
#X msg 3146 -180 127;
#X obj 3271 -180 noise~;
#X obj 3321 -136 line~;
#X obj 3271 -112 *~;
#X obj 3186 -180 delay 20;
#X obj 3146 -78 hip~ 90;
#X obj 3448 -119 line~;
#X obj 3265 -252 t b b b b b b;
#X obj 3287 -39 *~;
#X msg 3186 -154 0 150;
#X msg 3493 -152 0 150;
#X obj 3363 -179 delay 20;
#X msg 3321 -180 0.02;
#X obj 3493 -176 delay 20;
#X obj 3271 -90 hip~ 4000;
#X msg 3363 -157 0 15;
#X msg 3448 -178 0.5;
#X text 3282 -332 Kick 4;
#X obj 3265 -279 r bangerKick4;
#X obj 3443 -53 r kick4Volume;
#X obj 1151 -357 delay;
#X obj 1162 -384 *;
#X obj 1177 -412 r tempoRatio;
#X obj 1289 -355 delay;
#X obj 1300 -382 *;
#X obj 1315 -410 r tempoRatio;
#X obj 1162 -436 r snare1Delay;
#X obj 1300 -434 r snare2Delay;
#X obj 1152 -322 s bangerSnare1;
#X obj 1290 -320 s bangerSnare2;
#X obj 3796 173 dac~;
#X obj 3839 86 *~;
#X msg 3926 5 \$1 50;
#X obj 3926 36 line~;
#X obj 3633 -118 line;
#X obj 3633 -96 osc~;
#X msg 3633 -176 127;
#X obj 3758 -176 noise~;
#X obj 3808 -132 line~;
#X obj 3758 -108 *~;
#X obj 3673 -176 delay 20;
#X obj 3935 -115 line~;
#X obj 3752 -248 t b b b b b b;
#X obj 3774 -35 *~;
#X msg 3673 -150 0 150;
#X msg 3980 -148 0 150;
#X obj 3850 -175 delay 20;
#X obj 3980 -172 delay 20;
#X msg 3935 -174 0.5;
#X text 3769 -328 Snare 1;
#X obj 3752 -275 r bangerSnare1;
#X msg 3808 -176 0.5;
#X msg 3850 -153 0 150;
#X obj 3758 -86 hip~ 80;
#X obj 3633 -74 hip~ 200;
#X obj 3701 -74 line~;
#X msg 3700 -103 0.3;
#X obj 3711 -22 *~;
#X obj 1289 -459 r 4/4;
#X obj 4252 177 dac~;
#X obj 4295 90 *~;
#X msg 4382 9 \$1 50;
#X obj 4382 40 line~;
#X obj 4089 -114 line;
#X obj 4089 -92 osc~;
#X msg 4089 -172 127;
#X obj 4214 -172 noise~;
#X obj 4264 -128 line~;
#X obj 4214 -104 *~;
#X obj 4129 -172 delay 20;
#X obj 4391 -111 line~;
#X obj 4208 -244 t b b b b b b;
#X obj 4230 -31 *~;
#X msg 4129 -146 0 150;
#X msg 4436 -144 0 150;
#X obj 4306 -171 delay 20;
#X obj 4436 -168 delay 20;
#X msg 4391 -170 0.5;
#X msg 4264 -172 0.5;
#X msg 4306 -149 0 150;
#X obj 4214 -82 hip~ 80;
#X obj 4089 -70 hip~ 200;
#X obj 4157 -70 line~;
#X msg 4156 -99 0.3;
#X obj 4167 -18 *~;
#X obj 4385 -45 r snare2Volume;
#X text 4225 -324 Snare 2;
#X obj 3929 -49 r snare1Volume;
#X obj 4208 -271 r bangerSnare2;
#X obj 1151 -460 r 3/4;
#X connect 1 0 20 0;
#X connect 2 0 20 1;
#X connect 3 0 8 0;
#X connect 4 0 63 0;
#X connect 5 0 0 0;
#X connect 5 0 0 1;
#X connect 6 0 7 0;
#X connect 7 0 5 1;
#X connect 8 0 9 0;
#X connect 9 0 10 0;
#X connect 10 0 12 0;
#X connect 11 0 12 1;
#X connect 12 0 1 0;
#X connect 13 0 15 0;
#X connect 14 0 39 0;
#X connect 15 0 17 0;
#X connect 16 0 15 1;
#X connect 16 0 30 0;
#X connect 16 0 129 0;
#X connect 17 0 14 1;
#X connect 17 0 66 0;
#X connect 18 0 3 0;
#X connect 19 0 158 0;
#X connect 20 0 21 0;
#X connect 20 0 21 1;
#X connect 30 0 29 0;
#X connect 31 0 11 0;
#X connect 32 0 67 1;
#X connect 33 0 67 0;
#X connect 35 0 36 0;
#X connect 36 0 35 1;
#X connect 36 0 113 0;
#X connect 40 0 48 0;
#X connect 41 0 48 1;
#X connect 42 0 43 0;
#X connect 43 0 44 0;
#X connect 44 0 45 0;
#X connect 45 0 47 0;
#X connect 46 0 47 1;
#X connect 47 0 40 0;
#X connect 48 0 49 0;
#X connect 48 0 49 1;
#X connect 56 0 42 0;
#X connect 57 0 46 0;
#X connect 58 0 68 0;
#X connect 59 0 68 1;
#X connect 60 0 159 0;
#X connect 61 0 35 0;
#X connect 62 0 61 0;
#X connect 63 0 14 0;
#X connect 63 1 62 0;
#X connect 63 2 13 0;
#X connect 63 3 16 0;
#X connect 64 0 63 0;
#X connect 66 0 62 1;
#X connect 66 0 65 0;
#X connect 67 0 1 1;
#X connect 68 0 40 1;
#X connect 69 0 77 0;
#X connect 70 0 77 1;
#X connect 71 0 72 0;
#X connect 72 0 73 0;
#X connect 73 0 74 0;
#X connect 74 0 76 0;
#X connect 75 0 76 1;
#X connect 76 0 69 0;
#X connect 77 0 78 0;
#X connect 77 0 78 1;
#X connect 84 0 69 1;
#X connect 85 0 71 0;
#X connect 86 0 75 0;
#X connect 87 0 84 0;
#X connect 88 0 84 1;
#X connect 89 0 160 0;
#X connect 91 0 99 0;
#X connect 92 0 99 1;
#X connect 93 0 94 0;
#X connect 94 0 95 0;
#X connect 95 0 96 0;
#X connect 96 0 98 0;
#X connect 97 0 98 1;
#X connect 98 0 91 0;
#X connect 99 0 100 0;
#X connect 99 0 100 1;
#X connect 106 0 91 1;
#X connect 108 0 93 0;
#X connect 109 0 97 0;
#X connect 110 0 106 0;
#X connect 111 0 106 1;
#X connect 112 0 161 0;
#X connect 113 0 114 0;
#X connect 114 0 191 0;
#X connect 114 1 193 0;
#X connect 114 2 195 0;
#X connect 114 3 196 0;
#X connect 117 0 122 0;
#X connect 118 0 124 0;
#X connect 119 0 126 0;
#X connect 120 0 128 0;
#X connect 121 0 37 0;
#X connect 122 0 121 1;
#X connect 123 0 38 0;
#X connect 124 0 123 1;
#X connect 125 0 115 0;
#X connect 126 0 125 1;
#X connect 127 0 116 0;
#X connect 128 0 127 1;
#X connect 129 0 130 0;
#X connect 131 0 122 1;
#X connect 132 0 124 1;
#X connect 133 0 126 1;
#X connect 134 0 128 1;
#X connect 135 0 136 0;
#X connect 136 0 142 0;
#X connect 137 0 135 0;
#X connect 138 0 140 0;
#X connect 139 0 140 1;
#X connect 140 0 151 0;
#X connect 141 0 146 0;
#X connect 142 0 145 0;
#X connect 143 0 145 1;
#X connect 144 0 137 0;
#X connect 144 1 141 0;
#X connect 144 2 149 0;
#X connect 144 3 148 0;
#X connect 144 4 157 0;
#X connect 144 5 150 0;
#X connect 145 0 5 0;
#X connect 146 0 135 0;
#X connect 147 0 143 0;
#X connect 148 0 152 0;
#X connect 149 0 139 0;
#X connect 150 0 147 0;
#X connect 151 0 145 0;
#X connect 152 0 139 0;
#X connect 153 0 2 0;
#X connect 154 0 41 0;
#X connect 155 0 70 0;
#X connect 156 0 92 0;
#X connect 157 0 143 0;
#X connect 158 0 153 0;
#X connect 159 0 154 0;
#X connect 160 0 155 0;
#X connect 161 0 156 0;
#X connect 164 0 163 0;
#X connect 164 0 163 1;
#X connect 165 0 166 0;
#X connect 166 0 164 1;
#X connect 167 0 168 0;
#X connect 168 0 174 0;
#X connect 169 0 167 0;
#X connect 170 0 172 0;
#X connect 171 0 172 1;
#X connect 172 0 183 0;
#X connect 173 0 178 0;
#X connect 174 0 177 0;
#X connect 175 0 177 1;
#X connect 176 0 169 0;
#X connect 176 1 173 0;
#X connect 176 2 181 0;
#X connect 176 3 180 0;
#X connect 176 4 185 0;
#X connect 176 5 182 0;
#X connect 177 0 164 0;
#X connect 178 0 167 0;
#X connect 179 0 175 0;
#X connect 180 0 184 0;
#X connect 181 0 171 0;
#X connect 182 0 179 0;
#X connect 183 0 177 0;
#X connect 184 0 171 0;
#X connect 185 0 175 0;
#X connect 186 0 6 0;
#X connect 187 0 165 0;
#X connect 188 0 144 0;
#X connect 189 0 176 0;
#X connect 192 0 121 0;
#X connect 194 0 123 0;
#X connect 197 0 125 0;
#X connect 198 0 127 0;
#X connect 199 0 219 0;
#X connect 200 0 199 1;
#X connect 201 0 220 0;
#X connect 202 0 201 1;
#X connect 203 0 221 0;
#X connect 204 0 203 1;
#X connect 205 0 222 0;
#X connect 206 0 205 1;
#X connect 207 0 200 1;
#X connect 208 0 202 1;
#X connect 209 0 204 1;
#X connect 210 0 206 1;
#X connect 211 0 199 0;
#X connect 212 0 201 0;
#X connect 213 0 203 0;
#X connect 214 0 205 0;
#X connect 215 0 200 0;
#X connect 216 0 202 0;
#X connect 217 0 204 0;
#X connect 218 0 206 0;
#X connect 224 0 223 0;
#X connect 224 0 223 1;
#X connect 225 0 226 0;
#X connect 226 0 224 1;
#X connect 227 0 228 0;
#X connect 228 0 234 0;
#X connect 229 0 227 0;
#X connect 230 0 232 0;
#X connect 231 0 232 1;
#X connect 232 0 243 0;
#X connect 233 0 238 0;
#X connect 234 0 237 0;
#X connect 235 0 237 1;
#X connect 236 0 229 0;
#X connect 236 1 233 0;
#X connect 236 2 241 0;
#X connect 236 3 240 0;
#X connect 236 4 245 0;
#X connect 236 5 242 0;
#X connect 237 0 224 0;
#X connect 238 0 227 0;
#X connect 239 0 235 0;
#X connect 240 0 244 0;
#X connect 241 0 231 0;
#X connect 242 0 239 0;
#X connect 243 0 237 0;
#X connect 244 0 231 0;
#X connect 245 0 235 0;
#X connect 247 0 236 0;
#X connect 248 0 225 0;
#X connect 250 0 249 0;
#X connect 250 0 249 1;
#X connect 251 0 252 0;
#X connect 252 0 250 1;
#X connect 253 0 254 0;
#X connect 254 0 260 0;
#X connect 255 0 253 0;
#X connect 256 0 258 0;
#X connect 257 0 258 1;
#X connect 258 0 269 0;
#X connect 259 0 264 0;
#X connect 260 0 263 0;
#X connect 261 0 263 1;
#X connect 262 0 255 0;
#X connect 262 1 259 0;
#X connect 262 2 267 0;
#X connect 262 3 266 0;
#X connect 262 4 271 0;
#X connect 262 5 268 0;
#X connect 263 0 250 0;
#X connect 264 0 253 0;
#X connect 265 0 261 0;
#X connect 266 0 270 0;
#X connect 267 0 257 0;
#X connect 268 0 265 0;
#X connect 269 0 263 0;
#X connect 270 0 257 0;
#X connect 271 0 261 0;
#X connect 273 0 262 0;
#X connect 274 0 251 0;
#X connect 275 0 283 0;
#X connect 276 0 275 1;
#X connect 277 0 276 1;
#X connect 278 0 284 0;
#X connect 279 0 278 1;
#X connect 280 0 279 1;
#X connect 281 0 276 0;
#X connect 282 0 279 0;
#X connect 286 0 285 0;
#X connect 286 0 285 1;
#X connect 287 0 288 0;
#X connect 288 0 286 1;
#X connect 289 0 290 0;
#X connect 290 0 309 0;
#X connect 291 0 289 0;
#X connect 292 0 294 0;
#X connect 293 0 294 1;
#X connect 294 0 308 0;
#X connect 295 0 299 0;
#X connect 296 0 298 1;
#X connect 297 0 291 0;
#X connect 297 1 295 0;
#X connect 297 2 306 0;
#X connect 297 3 301 0;
#X connect 297 4 303 0;
#X connect 297 5 302 0;
#X connect 298 0 286 0;
#X connect 299 0 289 0;
#X connect 300 0 296 0;
#X connect 301 0 307 0;
#X connect 302 0 300 0;
#X connect 303 0 296 0;
#X connect 305 0 297 0;
#X connect 306 0 293 0;
#X connect 307 0 293 0;
#X connect 308 0 298 0;
#X connect 309 0 312 0;
#X connect 310 0 312 1;
#X connect 311 0 310 0;
#X connect 312 0 298 0;
#X connect 313 0 278 0;
#X connect 315 0 314 0;
#X connect 315 0 314 1;
#X connect 316 0 317 0;
#X connect 317 0 315 1;
#X connect 318 0 319 0;
#X connect 319 0 336 0;
#X connect 320 0 318 0;
#X connect 321 0 323 0;
#X connect 322 0 323 1;
#X connect 323 0 335 0;
#X connect 324 0 328 0;
#X connect 325 0 327 1;
#X connect 326 0 320 0;
#X connect 326 1 324 0;
#X connect 326 2 333 0;
#X connect 326 3 330 0;
#X connect 326 4 332 0;
#X connect 326 5 331 0;
#X connect 327 0 315 0;
#X connect 328 0 318 0;
#X connect 329 0 325 0;
#X connect 330 0 334 0;
#X connect 331 0 329 0;
#X connect 332 0 325 0;
#X connect 333 0 322 0;
#X connect 334 0 322 0;
#X connect 335 0 327 0;
#X connect 336 0 339 0;
#X connect 337 0 339 1;
#X connect 338 0 337 0;
#X connect 339 0 327 0;
#X connect 340 0 316 0;
#X connect 342 0 287 0;
#X connect 343 0 326 0;
#X connect 344 0 275 0;
#X coords 0 702 1 701 200 300 0;
