#N canvas 110 46 1091 702 10;
#X obj 1817 156 dac~;
#X obj -506 94 *~;
#X obj -225 -48 line~;
#X obj -633 -151 mtof;
#X obj 1860 69 *~;
#X msg 1947 -12 \$1 50;
#X obj 1947 19 line~;
#X obj -633 -115 phasor~;
#X obj -633 -92 *~ 2;
#X obj -633 -67 -~ 1;
#X obj -533 -47 mtof;
#X obj -604 -2 lop~;
#X msg 285 -703 60000;
#X obj 297 -675 /;
#X obj -633 -198 r osc1modulo1X;
#X obj -225 -198 r osc1Volume;
#X obj -444 141 *~;
#X obj -437 192 dac~;
#X text 130 -781 ----------------- Metronome ---------------;
#X text -603 -221 Note;
#X text -518 -221 Filtre;
#X text -308 -222 Decay;
#X text -206 -223 Volume;
#X text -446 -285 Oscillateur 1;
#X obj 332 -544 s tempo;
#X obj 332 -642 / 10;
#X obj -533 -198 r osc1Cutoff;
#X obj -333 -198 r osc1modulo2X;
#X obj -445 -198 r osc1modulo2Y;
#X text -424 -221 Attack;
#X obj 101 -616 +;
#X floatatom 133 -600 5 0 0 0 - - -, f 5;
#X obj 70 -326 s banger1;
#X obj 205 -325 s banger2;
#X obj 59 93 *~;
#X obj 341 -49 line~;
#X obj -68 -152 mtof;
#X obj -68 -116 phasor~;
#X obj -68 -93 *~ 2;
#X obj -68 -68 -~ 1;
#X obj 32 -48 mtof;
#X obj -39 -3 lop~;
#X obj 121 140 *~;
#X obj 128 191 dac~;
#X text -38 -222 Note;
#X text 47 -222 Filtre;
#X text 257 -223 Decay;
#X text 359 -224 Volume;
#X text 141 -222 Attack;
#X text 119 -286 Oscillateur 2;
#X obj -68 -199 r osc2modulo1X;
#X obj 32 -199 r osc2Cutoff;
#X obj 120 -199 r osc2modulo2Y;
#X obj 232 -199 r osc2modulo2X;
#X obj 340 -199 r osc2Volume;
#X obj 101 -640 1;
#X obj 198 -658 metro;
#N canvas 584 39 485 438 enveloppe 0;
#X obj 14 8 inlet;
#X obj 64 8 inlet;
#X obj 28 232 line~;
#X obj 174 190 pack 0 \$2;
#X obj 27 130 t b b;
#X obj 3 110 bng 15 250 50 0 empty empty empty 17 7 0 10 -262144 -1
-1;
#X obj 29 192 pack 0.5 \$2;
#X obj 107 154 delay;
#X obj 27 91 r banger1;
#X text 24 -12 Y;
#X text 77 -12 X;
#X obj 35 295 outlet~;
#X connect 0 0 6 1;
#X connect 0 0 7 1;
#X connect 1 0 3 1;
#X connect 2 0 11 0;
#X connect 3 0 2 0;
#X connect 4 0 6 0;
#X connect 4 1 7 0;
#X connect 6 0 2 0;
#X connect 7 0 3 0;
#X connect 8 0 4 0;
#X connect 8 0 5 0;
#X restore -448 -118 pd enveloppe;
#N canvas 592 39 485 438 enveloppe 0;
#X obj 14 8 inlet;
#X obj 64 8 inlet;
#X obj 28 232 line~;
#X obj 174 190 pack 0 \$2;
#X obj 27 130 t b b;
#X obj 3 110 bng 15 250 50 0 empty empty empty 17 7 0 10 -262144 -1
-1;
#X obj 29 192 pack 0.5 \$2;
#X obj 107 154 delay;
#X text 24 -12 Y;
#X text 77 -12 X;
#X obj 35 295 outlet~;
#X obj 27 91 r banger2;
#X connect 0 0 6 1;
#X connect 0 0 7 1;
#X connect 1 0 3 1;
#X connect 2 0 10 0;
#X connect 3 0 2 0;
#X connect 4 0 6 0;
#X connect 4 1 7 0;
#X connect 6 0 2 0;
#X connect 7 0 3 0;
#X connect 11 0 4 0;
#X connect 11 0 5 0;
#X restore 179 -119 pd enveloppe;
#X obj 646 94 *~;
#X obj 928 -48 line~;
#X obj 519 -151 mtof;
#X obj 519 -115 phasor~;
#X obj 519 -92 *~ 2;
#X obj 519 -67 -~ 1;
#X obj 619 -47 mtof;
#X obj 548 -2 lop~;
#X obj 708 141 *~;
#X obj 715 192 dac~;
#X text 549 -221 Note;
#X text 634 -221 Filtre;
#X text 844 -222 Decay;
#X text 946 -223 Volume;
#X text 728 -221 Attack;
#N canvas 789 41 485 438 enveloppe 0;
#X obj 14 8 inlet;
#X obj 64 8 inlet;
#X obj 28 232 line~;
#X obj 174 190 pack 0 \$2;
#X obj 27 130 t b b;
#X obj 3 110 bng 15 250 50 0 empty empty empty 17 7 0 10 -262144 -1
-1;
#X obj 29 192 pack 0.5 \$2;
#X obj 107 154 delay;
#X text 24 -12 Y;
#X text 77 -12 X;
#X obj 35 295 outlet~;
#X obj 27 91 r banger3;
#X connect 0 0 6 1;
#X connect 0 0 7 1;
#X connect 1 0 3 1;
#X connect 2 0 10 0;
#X connect 3 0 2 0;
#X connect 4 0 6 0;
#X connect 4 1 7 0;
#X connect 6 0 2 0;
#X connect 7 0 3 0;
#X connect 11 0 4 0;
#X connect 11 0 5 0;
#X restore 766 -118 pd enveloppe;
#X obj 519 -198 r osc3modulo1X;
#X obj 619 -198 r osc3Cutoff;
#X obj 707 -198 r osc3modulo2Y;
#X obj 819 -198 r osc3modulo2X;
#X obj 927 -198 r osc3Volume;
#X text 706 -285 Oscillateur 3;
#X obj 1228 96 *~;
#X obj 1510 -46 line~;
#X obj 1101 -149 mtof;
#X obj 1101 -113 phasor~;
#X obj 1101 -90 *~ 2;
#X obj 1101 -65 -~ 1;
#X obj 1201 -45 mtof;
#X obj 1130 0 lop~;
#X obj 1290 143 *~;
#X obj 1297 194 dac~;
#X text 1131 -219 Note;
#X text 1216 -219 Filtre;
#X text 1426 -220 Decay;
#X text 1528 -221 Volume;
#X text 1310 -219 Attack;
#N canvas 584 39 485 438 enveloppe 0;
#X obj 14 8 inlet;
#X obj 64 8 inlet;
#X obj 28 232 line~;
#X obj 174 190 pack 0 \$2;
#X obj 27 130 t b b;
#X obj 3 110 bng 15 250 50 0 empty empty empty 17 7 0 10 -262144 -1
-1;
#X obj 29 192 pack 0.5 \$2;
#X obj 107 154 delay;
#X text 24 -12 Y;
#X text 77 -12 X;
#X obj 35 295 outlet~;
#X obj 27 91 r banger4;
#X connect 0 0 6 1;
#X connect 0 0 7 1;
#X connect 1 0 3 1;
#X connect 2 0 10 0;
#X connect 3 0 2 0;
#X connect 4 0 6 0;
#X connect 4 1 7 0;
#X connect 6 0 2 0;
#X connect 7 0 3 0;
#X connect 11 0 4 0;
#X connect 11 0 5 0;
#X restore 1348 -116 pd enveloppe;
#X text 1288 -283 Oscillateur 4;
#X obj 1101 -196 r osc4modulo1X;
#X obj 1201 -196 r osc4Cutoff;
#X obj 1289 -196 r osc4modulo2Y;
#X obj 1400 -196 r osc4modulo2X;
#X obj 1509 -196 r osc4Volume;
#X obj 104 -572 % 4;
#X obj 339 -324 s banger3;
#X obj 467 -324 s banger4;
#X obj 96 -440 r osc1Delay;
#X obj 232 -436 r osc2Delay;
#X obj 366 -430 r osc3Delay;
#X obj 494 -433 r osc4Delay;
#X obj 69 -361 delay;
#X obj 205 -358 delay;
#X obj 339 -352 delay;
#X obj 467 -351 delay;
#X obj 1654 -135 line;
#X obj 1654 -113 osc~;
#X obj 1779 -193 noise~;
#X obj 1829 -149 line~;
#X obj 1779 -125 *~;
#X obj 1694 -193 delay 20;
#X obj 1956 -132 line~;
#X obj 1773 -265 t b b b b b b;
#X obj 1795 -52 *~;
#X msg 1694 -167 0 150;
#X msg 2001 -165 0 150;
#X obj 1871 -192 delay 20;
#X msg 1829 -193 0.02;
#X obj 2001 -189 delay 20;
#X obj 1779 -103 hip~ 4000;
#X msg 1871 -170 0 15;
#X msg -225 -79 \$1 50;
#X msg 341 -80 \$1 50;
#X msg 928 -79 \$1 50;
#X msg 1510 -77 \$1 50;
#X msg 1956 -191 0.5;
#X text 1792 -352 Kick 1;
#X obj 2328 165 dac~;
#X obj 2371 78 *~;
#X msg 2458 -3 \$1 50;
#X obj 2458 28 line~;
#X obj 2165 -126 line;
#X obj 2165 -104 osc~;
#X obj 2290 -184 noise~;
#X obj 2340 -140 line~;
#X obj 2290 -116 *~;
#X obj 2205 -184 delay 20;
#X obj 2467 -123 line~;
#X obj 2284 -256 t b b b b b b;
#X obj 2306 -43 *~;
#X msg 2205 -158 0 150;
#X msg 2512 -156 0 150;
#X obj 2382 -183 delay 20;
#X msg 2340 -184 0.02;
#X obj 2512 -180 delay 20;
#X obj 2290 -94 hip~ 4000;
#X msg 2382 -161 0 15;
#X msg 2467 -182 0.5;
#X obj 1951 -66 r kick1Volume;
#X obj 2462 -57 r kick2Volume;
#X obj 1773 -292 r bangerKick1;
#X obj 2284 -283 r bangerKick2;
#X text 2301 -336 Kick 2;
#X obj 69 -503 s 1/4;
#X obj 69 -464 r 1/4;
#X obj 117 -502 s 2/4;
#X obj 205 -463 r 2/4;
#X obj 161 -501 s 3/4;
#X obj 207 -500 s 4/4;
#X obj 339 -460 r 3/4;
#X obj 467 -463 r 4/4;
#X obj 613 -361 delay;
#X obj 749 -358 delay;
#X obj 883 -352 delay;
#X obj 1011 -351 delay;
#X obj 613 -464 r 1/4;
#X obj 749 -463 r 2/4;
#X obj 883 -460 r 3/4;
#X obj 1011 -463 r 4/4;
#X obj 640 -433 r kick1Delay;
#X obj 776 -433 r kick2Delay;
#X obj 910 -430 r kick3Delay;
#X obj 1038 -430 r kick4Delay;
#X obj 614 -326 s bangerKick1;
#X obj 749 -325 s bangerKick2;
#X obj 883 -324 s bangerKick3;
#X obj 1011 -324 s bangerKick4;
#X obj 2806 168 dac~;
#X obj 2849 81 *~;
#X msg 2936 0 \$1 50;
#X obj 2936 31 line~;
#X obj 2643 -123 line;
#X obj 2643 -101 osc~;
#X obj 2768 -181 noise~;
#X obj 2818 -137 line~;
#X obj 2768 -113 *~;
#X obj 2683 -181 delay 20;
#X obj 2945 -120 line~;
#X obj 2762 -253 t b b b b b b;
#X obj 2784 -40 *~;
#X msg 2683 -155 0 150;
#X msg 2990 -153 0 150;
#X obj 2860 -180 delay 20;
#X msg 2818 -181 0.02;
#X obj 2990 -177 delay 20;
#X obj 2768 -91 hip~ 4000;
#X msg 2860 -158 0 15;
#X msg 2945 -179 0.5;
#X text 2779 -333 Kick 3;
#X obj 2762 -280 r bangerKick3;
#X obj 2940 -54 r kick3Volume;
#X obj 3309 169 dac~;
#X obj 3352 82 *~;
#X msg 3439 1 \$1 50;
#X obj 3439 32 line~;
#X obj 3146 -122 line;
#X obj 3146 -100 osc~;
#X obj 3271 -180 noise~;
#X obj 3321 -136 line~;
#X obj 3271 -112 *~;
#X obj 3186 -180 delay 20;
#X obj 3448 -119 line~;
#X obj 3265 -252 t b b b b b b;
#X obj 3287 -39 *~;
#X msg 3186 -154 0 150;
#X msg 3493 -152 0 150;
#X obj 3363 -179 delay 20;
#X msg 3321 -180 0.02;
#X obj 3493 -176 delay 20;
#X obj 3271 -90 hip~ 4000;
#X msg 3363 -157 0 15;
#X msg 3448 -178 0.5;
#X text 3282 -332 Kick 4;
#X obj 3265 -279 r bangerKick4;
#X obj 3443 -53 r kick4Volume;
#X obj 1151 -346 delay;
#X obj 1289 -355 delay;
#X obj 1316 -431 r perc2Delay;
#X obj 1151 -322 s bangerPerc1;
#X obj 1290 -320 s bangerPerc2;
#X obj 3796 173 dac~;
#X obj 3839 86 *~;
#X msg 3926 5 \$1 50;
#X obj 3926 36 line~;
#X obj 3633 -118 line;
#X obj 3633 -96 osc~;
#X msg 3633 -176 127;
#X obj 3758 -176 noise~;
#X obj 3758 -108 *~;
#X obj 3673 -176 delay 20;
#X obj 3774 -35 *~;
#X msg 3673 -150 0 150;
#X text 3769 -328 Perc 1;
#X obj 3752 -275 r bangerPerc1;
#X obj 3701 -74 line~;
#X msg 3700 -103 0.3;
#X obj 3711 -22 *~;
#X obj 3926 -26 r perc1Volume;
#X obj 246 -762 loadbang;
#X obj 104 -543 sel 0 1 2;
#X obj 337 -762 r GeneralTempoX;
#N canvas 743 79 485 438 enveloppePerc 0;
#X obj 14 8 inlet;
#X obj 64 8 inlet;
#X obj 28 232 line~;
#X obj 222 58 r tempo;
#X obj 174 190 pack 0 \$2;
#X obj 27 130 t b b;
#X obj 204 98 *;
#X obj 29 192 pack 0.5 \$2;
#X obj 107 154 delay;
#X text 24 -12 Y;
#X text 77 -12 X;
#X obj 35 295 outlet~;
#X obj 27 91 r bangerPerc1;
#X connect 0 0 7 1;
#X connect 0 0 8 1;
#X connect 1 0 6 0;
#X connect 2 0 11 0;
#X connect 3 0 6 1;
#X connect 4 0 2 0;
#X connect 5 0 7 0;
#X connect 5 1 8 0;
#X connect 6 0 4 1;
#X connect 7 0 2 0;
#X connect 8 0 4 0;
#X connect 12 0 5 0;
#X restore 3805 -137 pd enveloppePerc;
#X obj 3805 -167 r perc1modulo1Y;
#X obj 3912 -167 r perc1modulo1X;
#N canvas 743 79 485 438 enveloppePerc 0;
#X obj 14 8 inlet;
#X obj 64 8 inlet;
#X obj 28 232 line~;
#X obj 174 190 pack 0 \$2;
#X obj 27 130 t b b;
#X obj 29 192 pack 0.5 \$2;
#X obj 107 154 delay;
#X text 24 -12 Y;
#X text 77 -12 X;
#X obj 35 295 outlet~;
#X obj 27 91 r bangerPerc1;
#X connect 0 0 5 1;
#X connect 0 0 6 1;
#X connect 1 0 3 1;
#X connect 2 0 9 0;
#X connect 3 0 2 0;
#X connect 4 0 5 0;
#X connect 4 1 6 0;
#X connect 5 0 2 0;
#X connect 6 0 3 0;
#X connect 10 0 4 0;
#X restore 3813 -60 pd enveloppePerc;
#X obj 3813 -87 r perc1modulo1Y;
#X obj 3920 -87 r perc1modulo1X;
#X obj 3752 -248 t b b;
#X obj 4286 173 dac~;
#X obj 4329 86 *~;
#X msg 4416 5 \$1 50;
#X obj 4416 36 line~;
#X obj 4123 -118 line;
#X obj 4123 -96 osc~;
#X msg 4123 -176 127;
#X obj 4248 -176 noise~;
#X obj 4248 -108 *~;
#X obj 4163 -176 delay 20;
#X obj 4264 -35 *~;
#X msg 4163 -150 0 150;
#X obj 4248 -86 hip~ 80;
#X obj 4123 -74 hip~ 200;
#X obj 4191 -74 line~;
#X msg 4190 -103 0.3;
#X obj 4201 -22 *~;
#N canvas 743 79 485 438 enveloppePerc 0;
#X obj 14 8 inlet;
#X obj 64 8 inlet;
#X obj 28 232 line~;
#X obj 222 58 r tempo;
#X obj 174 190 pack 0 \$2;
#X obj 27 130 t b b;
#X obj 204 98 *;
#X obj 29 192 pack 0.5 \$2;
#X obj 107 154 delay;
#X text 24 -12 Y;
#X text 77 -12 X;
#X obj 35 295 outlet~;
#X obj 27 91 r bangerPerc2;
#X connect 0 0 7 1;
#X connect 0 0 8 1;
#X connect 1 0 6 0;
#X connect 2 0 11 0;
#X connect 3 0 6 1;
#X connect 4 0 2 0;
#X connect 5 0 7 0;
#X connect 5 1 8 0;
#X connect 6 0 4 1;
#X connect 7 0 2 0;
#X connect 8 0 4 0;
#X connect 12 0 5 0;
#X restore 4295 -137 pd enveloppePerc;
#N canvas 743 79 485 438 enveloppePerc 0;
#X obj 14 8 inlet;
#X obj 64 8 inlet;
#X obj 28 232 line~;
#X obj 174 190 pack 0 \$2;
#X obj 27 130 t b b;
#X obj 29 192 pack 0.5 \$2;
#X obj 107 154 delay;
#X text 24 -12 Y;
#X text 77 -12 X;
#X obj 35 295 outlet~;
#X obj 27 91 r bangerPerc2;
#X connect 0 0 5 1;
#X connect 0 0 6 1;
#X connect 1 0 3 1;
#X connect 2 0 9 0;
#X connect 3 0 2 0;
#X connect 4 0 5 0;
#X connect 4 1 6 0;
#X connect 5 0 2 0;
#X connect 6 0 3 0;
#X connect 10 0 4 0;
#X restore 4303 -60 pd enveloppePerc;
#X obj 4242 -248 t b b;
#X text 4259 -328 Perc 2;
#X obj 4242 -275 r bangerPerc2;
#X obj 4295 -167 r perc2modulo1Y;
#X obj 4402 -167 r perc2modulo1X;
#X obj 4416 -26 r perc2Volume;
#X obj 4303 -87 r perc2modulo1Y;
#X obj 4410 -87 r perc2modulo1X;
#X obj 1151 -460 r 1/4;
#X obj 1289 -459 r 2/4;
#X obj 1431 -357 delay;
#X obj 1569 -355 delay;
#X obj 1431 -460 r 3/4;
#X obj 1569 -459 r 4/4;
#X obj 1458 -430 r perc3Delay;
#X obj 1596 -431 r perc4Delay;
#X obj 1432 -322 s bangerPerc3;
#X obj 1570 -320 s bangerPerc4;
#X obj 3633 -74 hip~ 200;
#X obj 3758 -86 hip~ 80;
#X obj 3793 29 lop~;
#X obj 3823 6 mtof;
#X obj 3823 -17 r perc1Cutoff;
#X msg 1654 -193 100;
#X obj 1654 -91 hip~ 80;
#X msg 2165 -184 100;
#X obj 2165 -82 hip~ 80;
#X obj 2643 -79 hip~ 80;
#X msg 2643 -181 100;
#X msg 3146 -180 100;
#X obj 3146 -78 hip~ 80;
#X obj 421 -534 s tempoRatio;
#X obj 414 -593 / 100;
#X obj 4282 29 lop~;
#X obj 4312 6 mtof;
#X obj 4312 -17 r perc2Cutoff;
#X obj 247 -733 t b;
#X obj 1178 -433 r perc1Delay;
#X obj 4766 173 dac~;
#X obj 4809 86 *~;
#X msg 4896 5 \$1 50;
#X obj 4896 36 line~;
#X obj 4603 -118 line;
#X obj 4603 -96 osc~;
#X msg 4603 -176 127;
#X obj 4728 -176 noise~;
#X obj 4728 -108 *~;
#X obj 4643 -176 delay 20;
#X obj 4744 -35 *~;
#X msg 4643 -150 0 150;
#X obj 4728 -86 hip~ 80;
#X obj 4603 -74 hip~ 200;
#X obj 4671 -74 line~;
#X msg 4670 -103 0.3;
#X obj 4681 -22 *~;
#N canvas 743 79 485 438 enveloppePerc 0;
#X obj 14 8 inlet;
#X obj 64 8 inlet;
#X obj 28 232 line~;
#X obj 222 58 r tempo;
#X obj 174 190 pack 0 \$2;
#X obj 27 130 t b b;
#X obj 204 98 *;
#X obj 29 192 pack 0.5 \$2;
#X obj 107 154 delay;
#X text 24 -12 Y;
#X text 77 -12 X;
#X obj 35 295 outlet~;
#X obj 27 91 r bangerPerc2;
#X connect 0 0 7 1;
#X connect 0 0 8 1;
#X connect 1 0 6 0;
#X connect 2 0 11 0;
#X connect 3 0 6 1;
#X connect 4 0 2 0;
#X connect 5 0 7 0;
#X connect 5 1 8 0;
#X connect 6 0 4 1;
#X connect 7 0 2 0;
#X connect 8 0 4 0;
#X connect 12 0 5 0;
#X restore 4775 -137 pd enveloppePerc;
#N canvas 743 79 485 438 enveloppePerc 0;
#X obj 14 8 inlet;
#X obj 64 8 inlet;
#X obj 28 232 line~;
#X obj 174 190 pack 0 \$2;
#X obj 27 130 t b b;
#X obj 29 192 pack 0.5 \$2;
#X obj 107 154 delay;
#X text 24 -12 Y;
#X text 77 -12 X;
#X obj 35 295 outlet~;
#X obj 27 91 r bangerPerc3;
#X connect 0 0 5 1;
#X connect 0 0 6 1;
#X connect 1 0 3 1;
#X connect 2 0 9 0;
#X connect 3 0 2 0;
#X connect 4 0 5 0;
#X connect 4 1 6 0;
#X connect 5 0 2 0;
#X connect 6 0 3 0;
#X connect 10 0 4 0;
#X restore 4783 -60 pd enveloppePerc;
#X obj 4722 -248 t b b;
#X obj 4762 29 lop~;
#X obj 4792 6 mtof;
#X obj 4722 -275 r bangerPerc3;
#X text 4739 -328 Perc 3;
#X obj 4775 -167 r perc3modulo1Y;
#X obj 4882 -167 r perc3modulo1X;
#X obj 4783 -87 r perc3modulo1Y;
#X obj 4890 -87 r perc3modulo1X;
#X obj 4792 -17 r perc3Cutoff;
#X obj 4896 -26 r perc3Volume;
#X obj 5236 173 dac~;
#X obj 5279 86 *~;
#X msg 5366 5 \$1 50;
#X obj 5366 36 line~;
#X obj 5073 -118 line;
#X obj 5073 -96 osc~;
#X msg 5073 -176 127;
#X obj 5198 -176 noise~;
#X obj 5198 -108 *~;
#X obj 5113 -176 delay 20;
#X obj 5214 -35 *~;
#X msg 5113 -150 0 150;
#X obj 5198 -86 hip~ 80;
#X obj 5073 -74 hip~ 200;
#X obj 5141 -74 line~;
#X msg 5140 -103 0.3;
#X obj 5151 -22 *~;
#N canvas 743 79 485 438 enveloppePerc 0;
#X obj 14 8 inlet;
#X obj 64 8 inlet;
#X obj 28 232 line~;
#X obj 222 58 r tempo;
#X obj 174 190 pack 0 \$2;
#X obj 27 130 t b b;
#X obj 204 98 *;
#X obj 29 192 pack 0.5 \$2;
#X obj 107 154 delay;
#X text 24 -12 Y;
#X text 77 -12 X;
#X obj 35 295 outlet~;
#X obj 27 91 r bangerPerc2;
#X connect 0 0 7 1;
#X connect 0 0 8 1;
#X connect 1 0 6 0;
#X connect 2 0 11 0;
#X connect 3 0 6 1;
#X connect 4 0 2 0;
#X connect 5 0 7 0;
#X connect 5 1 8 0;
#X connect 6 0 4 1;
#X connect 7 0 2 0;
#X connect 8 0 4 0;
#X connect 12 0 5 0;
#X restore 5245 -137 pd enveloppePerc;
#N canvas 743 79 485 438 enveloppePerc 0;
#X obj 14 8 inlet;
#X obj 64 8 inlet;
#X obj 28 232 line~;
#X obj 174 190 pack 0 \$2;
#X obj 27 130 t b b;
#X obj 29 192 pack 0.5 \$2;
#X obj 107 154 delay;
#X text 24 -12 Y;
#X text 77 -12 X;
#X obj 35 295 outlet~;
#X obj 27 91 r bangerPerc4;
#X connect 0 0 5 1;
#X connect 0 0 6 1;
#X connect 1 0 3 1;
#X connect 2 0 9 0;
#X connect 3 0 2 0;
#X connect 4 0 5 0;
#X connect 4 1 6 0;
#X connect 5 0 2 0;
#X connect 6 0 3 0;
#X connect 10 0 4 0;
#X restore 5253 -60 pd enveloppePerc;
#X obj 5192 -248 t b b;
#X obj 5232 29 lop~;
#X obj 5262 6 mtof;
#X text 5209 -328 Perc 4;
#X obj 5192 -275 r bangerPerc4;
#X obj 5245 -167 r perc4modulo1Y;
#X obj 5352 -167 r perc4modulo1X;
#X obj 5253 -87 r perc4modulo1Y;
#X obj 5360 -87 r perc4modulo1X;
#X obj 5262 -17 r perc4Cutoff;
#X obj 5366 -26 r perc4Volume;
#X connect 1 0 16 0;
#X connect 2 0 16 1;
#X connect 3 0 7 0;
#X connect 4 0 0 0;
#X connect 4 0 0 1;
#X connect 5 0 6 0;
#X connect 6 0 4 1;
#X connect 7 0 8 0;
#X connect 8 0 9 0;
#X connect 9 0 11 0;
#X connect 10 0 11 1;
#X connect 11 0 1 0;
#X connect 12 0 13 0;
#X connect 13 0 56 1;
#X connect 14 0 3 0;
#X connect 15 0 130 0;
#X connect 16 0 17 0;
#X connect 16 0 17 1;
#X connect 25 0 24 0;
#X connect 26 0 10 0;
#X connect 27 0 57 1;
#X connect 28 0 57 0;
#X connect 30 0 31 0;
#X connect 31 0 30 1;
#X connect 31 0 103 0;
#X connect 34 0 42 0;
#X connect 35 0 42 1;
#X connect 36 0 37 0;
#X connect 37 0 38 0;
#X connect 38 0 39 0;
#X connect 39 0 41 0;
#X connect 40 0 41 1;
#X connect 41 0 34 0;
#X connect 42 0 43 0;
#X connect 42 0 43 1;
#X connect 50 0 36 0;
#X connect 51 0 40 0;
#X connect 52 0 58 0;
#X connect 53 0 58 1;
#X connect 54 0 131 0;
#X connect 55 0 30 0;
#X connect 56 0 55 0;
#X connect 57 0 1 1;
#X connect 58 0 34 1;
#X connect 59 0 67 0;
#X connect 60 0 67 1;
#X connect 61 0 62 0;
#X connect 62 0 63 0;
#X connect 63 0 64 0;
#X connect 64 0 66 0;
#X connect 65 0 66 1;
#X connect 66 0 59 0;
#X connect 67 0 68 0;
#X connect 67 0 68 1;
#X connect 74 0 59 1;
#X connect 75 0 61 0;
#X connect 76 0 65 0;
#X connect 77 0 74 0;
#X connect 78 0 74 1;
#X connect 79 0 132 0;
#X connect 81 0 89 0;
#X connect 82 0 89 1;
#X connect 83 0 84 0;
#X connect 84 0 85 0;
#X connect 85 0 86 0;
#X connect 86 0 88 0;
#X connect 87 0 88 1;
#X connect 88 0 81 0;
#X connect 89 0 90 0;
#X connect 89 0 90 1;
#X connect 96 0 81 1;
#X connect 98 0 83 0;
#X connect 99 0 87 0;
#X connect 100 0 96 0;
#X connect 101 0 96 1;
#X connect 102 0 133 0;
#X connect 103 0 258 0;
#X connect 106 0 110 1;
#X connect 107 0 111 1;
#X connect 108 0 112 1;
#X connect 109 0 113 1;
#X connect 110 0 32 0;
#X connect 111 0 33 0;
#X connect 112 0 104 0;
#X connect 113 0 105 0;
#X connect 114 0 115 0;
#X connect 115 0 310 0;
#X connect 116 0 118 0;
#X connect 117 0 118 1;
#X connect 118 0 128 0;
#X connect 119 0 123 0;
#X connect 120 0 122 1;
#X connect 121 0 309 0;
#X connect 121 1 119 0;
#X connect 121 2 126 0;
#X connect 121 3 125 0;
#X connect 121 4 134 0;
#X connect 121 5 127 0;
#X connect 122 0 4 0;
#X connect 123 0 114 0;
#X connect 124 0 120 0;
#X connect 125 0 129 0;
#X connect 126 0 117 0;
#X connect 127 0 124 0;
#X connect 128 0 122 0;
#X connect 129 0 117 0;
#X connect 130 0 2 0;
#X connect 131 0 35 0;
#X connect 132 0 60 0;
#X connect 133 0 82 0;
#X connect 134 0 120 0;
#X connect 137 0 136 0;
#X connect 137 0 136 1;
#X connect 138 0 139 0;
#X connect 139 0 137 1;
#X connect 140 0 141 0;
#X connect 141 0 312 0;
#X connect 142 0 144 0;
#X connect 143 0 144 1;
#X connect 144 0 154 0;
#X connect 145 0 149 0;
#X connect 146 0 148 1;
#X connect 147 0 311 0;
#X connect 147 1 145 0;
#X connect 147 2 152 0;
#X connect 147 3 151 0;
#X connect 147 4 156 0;
#X connect 147 5 153 0;
#X connect 148 0 137 0;
#X connect 149 0 140 0;
#X connect 150 0 146 0;
#X connect 151 0 155 0;
#X connect 152 0 143 0;
#X connect 153 0 150 0;
#X connect 154 0 148 0;
#X connect 155 0 143 0;
#X connect 156 0 146 0;
#X connect 157 0 5 0;
#X connect 158 0 138 0;
#X connect 159 0 121 0;
#X connect 160 0 147 0;
#X connect 163 0 110 0;
#X connect 165 0 111 0;
#X connect 168 0 112 0;
#X connect 169 0 113 0;
#X connect 170 0 182 0;
#X connect 171 0 183 0;
#X connect 172 0 184 0;
#X connect 173 0 185 0;
#X connect 174 0 170 0;
#X connect 175 0 171 0;
#X connect 176 0 172 0;
#X connect 177 0 173 0;
#X connect 178 0 170 1;
#X connect 179 0 171 1;
#X connect 180 0 172 1;
#X connect 181 0 173 1;
#X connect 187 0 186 0;
#X connect 187 0 186 1;
#X connect 188 0 189 0;
#X connect 189 0 187 1;
#X connect 190 0 191 0;
#X connect 191 0 313 0;
#X connect 192 0 194 0;
#X connect 193 0 194 1;
#X connect 194 0 204 0;
#X connect 195 0 199 0;
#X connect 196 0 198 1;
#X connect 197 0 314 0;
#X connect 197 1 195 0;
#X connect 197 2 202 0;
#X connect 197 3 201 0;
#X connect 197 4 206 0;
#X connect 197 5 203 0;
#X connect 198 0 187 0;
#X connect 199 0 190 0;
#X connect 200 0 196 0;
#X connect 201 0 205 0;
#X connect 202 0 193 0;
#X connect 203 0 200 0;
#X connect 204 0 198 0;
#X connect 205 0 193 0;
#X connect 206 0 196 0;
#X connect 208 0 197 0;
#X connect 209 0 188 0;
#X connect 211 0 210 0;
#X connect 211 0 210 1;
#X connect 212 0 213 0;
#X connect 213 0 211 1;
#X connect 214 0 215 0;
#X connect 215 0 316 0;
#X connect 216 0 218 0;
#X connect 217 0 218 1;
#X connect 218 0 228 0;
#X connect 219 0 223 0;
#X connect 220 0 222 1;
#X connect 221 0 315 0;
#X connect 221 1 219 0;
#X connect 221 2 226 0;
#X connect 221 3 225 0;
#X connect 221 4 230 0;
#X connect 221 5 227 0;
#X connect 222 0 211 0;
#X connect 223 0 214 0;
#X connect 224 0 220 0;
#X connect 225 0 229 0;
#X connect 226 0 217 0;
#X connect 227 0 224 0;
#X connect 228 0 222 0;
#X connect 229 0 217 0;
#X connect 230 0 220 0;
#X connect 232 0 221 0;
#X connect 233 0 212 0;
#X connect 234 0 237 0;
#X connect 235 0 238 0;
#X connect 236 0 235 1;
#X connect 240 0 239 0;
#X connect 240 0 239 1;
#X connect 241 0 242 0;
#X connect 242 0 240 1;
#X connect 243 0 244 0;
#X connect 244 0 304 0;
#X connect 245 0 243 0;
#X connect 246 0 247 0;
#X connect 247 0 305 0;
#X connect 248 0 250 0;
#X connect 249 0 306 0;
#X connect 250 0 243 0;
#X connect 252 0 266 0;
#X connect 253 0 255 1;
#X connect 254 0 253 0;
#X connect 255 0 249 0;
#X connect 256 0 241 0;
#X connect 257 0 322 0;
#X connect 258 0 162 0;
#X connect 258 1 164 0;
#X connect 258 2 166 0;
#X connect 258 3 167 0;
#X connect 259 0 13 1;
#X connect 259 0 25 0;
#X connect 259 0 318 0;
#X connect 259 0 12 0;
#X connect 260 0 247 1;
#X connect 261 0 260 0;
#X connect 262 0 260 1;
#X connect 263 0 249 1;
#X connect 264 0 263 0;
#X connect 265 0 263 1;
#X connect 266 0 245 0;
#X connect 266 1 248 0;
#X connect 268 0 267 0;
#X connect 268 0 267 1;
#X connect 269 0 270 0;
#X connect 270 0 268 1;
#X connect 271 0 272 0;
#X connect 272 0 280 0;
#X connect 273 0 271 0;
#X connect 274 0 275 0;
#X connect 275 0 279 0;
#X connect 276 0 278 0;
#X connect 277 0 319 0;
#X connect 278 0 271 0;
#X connect 279 0 277 0;
#X connect 280 0 283 0;
#X connect 281 0 283 1;
#X connect 282 0 281 0;
#X connect 283 0 277 0;
#X connect 284 0 275 1;
#X connect 285 0 277 1;
#X connect 286 0 273 0;
#X connect 286 1 276 0;
#X connect 288 0 286 0;
#X connect 289 0 284 0;
#X connect 290 0 284 1;
#X connect 291 0 269 0;
#X connect 292 0 285 0;
#X connect 293 0 285 1;
#X connect 294 0 234 0;
#X connect 295 0 235 0;
#X connect 296 0 302 0;
#X connect 297 0 303 0;
#X connect 298 0 296 0;
#X connect 299 0 297 0;
#X connect 300 0 296 1;
#X connect 301 0 297 1;
#X connect 304 0 255 0;
#X connect 305 0 249 0;
#X connect 306 0 240 0;
#X connect 307 0 306 1;
#X connect 308 0 307 0;
#X connect 309 0 114 0;
#X connect 310 0 122 0;
#X connect 311 0 140 0;
#X connect 312 0 148 0;
#X connect 313 0 198 0;
#X connect 314 0 190 0;
#X connect 315 0 214 0;
#X connect 316 0 222 0;
#X connect 318 0 317 0;
#X connect 319 0 268 0;
#X connect 320 0 319 1;
#X connect 321 0 320 0;
#X connect 322 0 56 0;
#X connect 323 0 234 1;
#X connect 325 0 324 0;
#X connect 325 0 324 1;
#X connect 326 0 327 0;
#X connect 327 0 325 1;
#X connect 328 0 329 0;
#X connect 329 0 337 0;
#X connect 330 0 328 0;
#X connect 331 0 332 0;
#X connect 332 0 336 0;
#X connect 333 0 335 0;
#X connect 334 0 344 0;
#X connect 335 0 328 0;
#X connect 336 0 334 0;
#X connect 337 0 340 0;
#X connect 338 0 340 1;
#X connect 339 0 338 0;
#X connect 340 0 334 0;
#X connect 341 0 332 1;
#X connect 342 0 334 1;
#X connect 343 0 330 0;
#X connect 343 1 333 0;
#X connect 344 0 325 0;
#X connect 345 0 344 1;
#X connect 346 0 343 0;
#X connect 348 0 341 0;
#X connect 349 0 341 1;
#X connect 350 0 342 0;
#X connect 351 0 342 1;
#X connect 352 0 345 0;
#X connect 353 0 326 0;
#X connect 355 0 354 0;
#X connect 355 0 354 1;
#X connect 356 0 357 0;
#X connect 357 0 355 1;
#X connect 358 0 359 0;
#X connect 359 0 367 0;
#X connect 360 0 358 0;
#X connect 361 0 362 0;
#X connect 362 0 366 0;
#X connect 363 0 365 0;
#X connect 364 0 374 0;
#X connect 365 0 358 0;
#X connect 366 0 364 0;
#X connect 367 0 370 0;
#X connect 368 0 370 1;
#X connect 369 0 368 0;
#X connect 370 0 364 0;
#X connect 371 0 362 1;
#X connect 372 0 364 1;
#X connect 373 0 360 0;
#X connect 373 1 363 0;
#X connect 374 0 355 0;
#X connect 375 0 374 1;
#X connect 377 0 373 0;
#X connect 378 0 371 0;
#X connect 379 0 371 1;
#X connect 380 0 372 0;
#X connect 381 0 372 1;
#X connect 382 0 375 0;
#X connect 383 0 356 0;
#X coords 0 702 1 701 200 300 0;
